<?xml version="1.0" encoding="UTF-8" standalone="no"?>
<!DOCTYPE svg PUBLIC "-//W3C//DTD SVG 1.1//EN" "http://www.w3.org/Graphics/SVG/1.1/DTD/svg11.dtd">
<svg width="100%" height="100%" viewBox="0 0 3473 834" version="1.1" xmlns="http://www.w3.org/2000/svg" xmlns:xlink="http://www.w3.org/1999/xlink" xml:space="preserve" xmlns:serif="http://www.serif.com/" style="fill-rule:evenodd;clip-rule:evenodd;stroke-linejoin:round;stroke-miterlimit:2;">
    <g transform="matrix(1.38889,0,0,1.38889,0,0)">
        <g id="Layer1">
        </g>
        <g transform="matrix(1,0,0,1,-33.9464,-15)">
            <g>
                <g transform="matrix(1,0,0,1,158.534,0)">
                    <circle cx="328.267" cy="249.8" r="50.2" style="fill:white;"/>
                </g>
                <g transform="matrix(17.6817,0,0,18.0017,215.887,83.9796)">
                    <path d="M9.315,7.584C12.195,3.883 16.695,1.5 21.75,1.5C22.161,1.5 22.5,1.839 22.5,2.25C22.5,7.306 20.117,11.805 16.416,14.686C16.472,15.038 16.5,15.394 16.5,15.75C16.5,19.453 13.453,22.5 9.75,22.5C9.75,22.5 9.75,22.5 9.75,22.5C9.339,22.5 9,22.161 9,21.75L9,17.619C8.028,16.851 7.149,15.972 6.382,15L2.25,15C1.839,15 1.5,14.661 1.5,14.25C1.5,14.25 1.5,14.25 1.5,14.249C1.5,10.547 4.547,7.499 8.25,7.499C8.607,7.499 8.963,7.528 9.315,7.584ZM15,6.75C13.766,6.75 12.75,7.766 12.75,9C12.75,10.234 13.766,11.25 15,11.25C16.234,11.25 17.25,10.234 17.25,9C17.25,7.766 16.234,6.75 15,6.75Z" style="fill:rgb(136,77,255);"/>
                </g>
            </g>
            <g transform="matrix(17.6817,0,0,18.0017,202.637,97.4532)">
                <path d="M5.26,17.242C5.45,17.1 5.562,16.877 5.562,16.64C5.562,16.229 5.223,15.89 4.812,15.89C4.65,15.89 4.493,15.942 4.363,16.039C2.802,17.2 2.01,19.139 2.313,21.061C2.362,21.383 2.616,21.637 2.938,21.688C4.86,21.99 6.799,21.199 7.96,19.637C8.061,19.506 8.116,19.345 8.116,19.179C8.116,18.767 7.778,18.429 7.366,18.429C7.125,18.429 6.899,18.545 6.758,18.74C6.051,19.69 4.934,20.251 3.75,20.25C3.75,19.02 4.342,17.927 5.26,17.242Z" style="fill:rgb(239,68,68);fill-rule:nonzero;"/>
            </g>
            <g transform="matrix(17.6817,0,0,18.0017,215.887,83.9796)">
                <path d="M5.26,17.242C5.45,17.1 5.562,16.877 5.562,16.64C5.562,16.229 5.223,15.89 4.812,15.89C4.65,15.89 4.493,15.942 4.363,16.039C2.802,17.2 2.01,19.139 2.313,21.061C2.362,21.383 2.616,21.637 2.938,21.688C4.86,21.99 6.799,21.199 7.96,19.637C8.061,19.506 8.116,19.345 8.116,19.179C8.116,18.767 7.778,18.429 7.366,18.429C7.125,18.429 6.899,18.545 6.758,18.74C6.051,19.69 4.934,20.251 3.75,20.25C3.75,19.02 4.342,17.927 5.26,17.242Z" style="fill:rgb(245,158,68);fill-rule:nonzero;"/>
            </g>
        </g>
        <g transform="matrix(1.2863,0,0,1.1738,-140.209,-530.739)">
            <path d="M707.68,809.127L707.68,602.971L795.289,602.971C817.321,602.971 833.328,604.822 843.313,608.525C853.297,612.228 861.289,618.814 867.289,628.283C873.289,637.752 876.289,648.58 876.289,660.768C876.289,676.236 871.743,689.01 862.649,699.088C853.555,709.166 839.961,715.518 821.868,718.143C830.868,723.393 838.297,729.158 844.157,735.439C850.016,741.721 857.914,752.877 867.852,768.908L893.024,809.127L843.243,809.127L813.149,764.268C802.461,748.236 795.149,738.135 791.211,733.963C787.274,729.791 783.102,726.932 778.696,725.385C774.289,723.838 767.305,723.064 757.743,723.064L749.305,723.064L749.305,809.127L707.68,809.127ZM749.305,690.158L780.102,690.158C800.071,690.158 812.539,689.314 817.508,687.627C822.477,685.939 826.368,683.033 829.18,678.908C831.993,674.783 833.399,669.627 833.399,663.439C833.399,656.502 831.547,650.9 827.844,646.635C824.141,642.369 818.914,639.674 812.164,638.549C808.789,638.08 798.664,637.846 781.789,637.846L749.305,637.846L749.305,690.158Z" style="fill:white;fill-rule:nonzero;"/>
            <path d="M1001.73,761.596L1041.1,768.205C1036.04,782.643 1028.05,793.635 1017.12,801.182C1006.2,808.728 992.539,812.502 976.133,812.502C950.164,812.502 930.946,804.018 918.477,787.049C908.633,773.455 903.711,756.299 903.711,735.58C903.711,710.83 910.18,691.447 923.118,677.432C936.055,663.416 952.414,656.408 972.196,656.408C994.414,656.408 1011.95,663.744 1024.79,678.416C1037.63,693.088 1043.77,715.564 1043.21,745.846L944.211,745.846C944.493,757.564 947.68,766.682 953.774,773.197C959.868,779.713 967.461,782.971 976.555,782.971C982.743,782.971 987.946,781.283 992.164,777.908C996.383,774.533 999.571,769.096 1001.73,761.596ZM1003.98,721.658C1003.7,710.221 1000.74,701.525 995.118,695.572C989.493,689.619 982.649,686.643 974.586,686.643C965.961,686.643 958.836,689.783 953.211,696.064C947.586,702.346 944.821,710.877 944.914,721.658L1003.98,721.658Z" style="fill:white;fill-rule:nonzero;"/>
            <rect x="1075.41" y="602.971" width="39.516" height="206.156" style="fill:white;fill-rule:nonzero;"/>
            <path d="M1241.91,761.596L1281.29,768.205C1276.23,782.643 1268.24,793.635 1257.31,801.182C1246.39,808.728 1232.73,812.502 1216.32,812.502C1190.35,812.502 1171.13,804.018 1158.66,787.049C1148.82,773.455 1143.9,756.299 1143.9,735.58C1143.9,710.83 1150.37,691.447 1163.31,677.432C1176.24,663.416 1192.6,656.408 1212.38,656.408C1234.6,656.408 1252.13,663.744 1264.98,678.416C1277.82,693.088 1283.96,715.564 1283.4,745.846L1184.4,745.846C1184.68,757.564 1187.87,766.682 1193.96,773.197C1200.06,779.713 1207.65,782.971 1216.74,782.971C1222.93,782.971 1228.13,781.283 1232.35,777.908C1236.57,774.533 1239.76,769.096 1241.91,761.596ZM1244.16,721.658C1243.88,710.221 1240.93,701.525 1235.31,695.572C1229.68,689.619 1222.84,686.643 1214.77,686.643C1206.15,686.643 1199.02,689.783 1193.4,696.064C1187.77,702.346 1185.01,710.877 1185.1,721.658L1244.16,721.658Z" style="fill:white;fill-rule:nonzero;"/>
            <path d="M1345.13,705.346L1309.27,698.877C1313.31,684.439 1320.24,673.752 1330.09,666.814C1339.93,659.877 1354.56,656.408 1373.96,656.408C1391.59,656.408 1404.71,658.494 1413.34,662.666C1421.96,666.838 1428.03,672.135 1431.55,678.557C1435.06,684.978 1436.82,696.768 1436.82,713.924L1436.4,760.049C1436.4,773.174 1437.03,782.853 1438.3,789.088C1439.56,795.322 1441.93,802.002 1445.4,809.127L1406.31,809.127C1405.27,806.502 1404.01,802.611 1402.51,797.455C1401.85,795.111 1401.38,793.564 1401.1,792.814C1394.35,799.377 1387.13,804.299 1379.45,807.58C1371.76,810.861 1363.56,812.502 1354.84,812.502C1339.46,812.502 1327.34,808.33 1318.49,799.986C1309.62,791.643 1305.2,781.096 1305.2,768.346C1305.2,759.908 1307.21,752.385 1311.24,745.775C1315.27,739.166 1320.92,734.103 1328.19,730.588C1335.45,727.072 1345.93,724.002 1359.62,721.377C1378.09,717.908 1390.88,714.674 1398.01,711.674L1398.01,707.736C1398.01,700.143 1396.13,694.728 1392.38,691.494C1388.63,688.26 1381.56,686.643 1371.15,686.643C1364.12,686.643 1358.63,688.025 1354.7,690.791C1350.76,693.557 1347.57,698.408 1345.13,705.346ZM1398.01,737.408C1392.95,739.096 1384.93,741.111 1373.96,743.455C1362.99,745.799 1355.82,748.096 1352.45,750.346C1347.29,754.002 1344.71,758.643 1344.71,764.268C1344.71,769.799 1346.77,774.58 1350.9,778.611C1355.02,782.643 1360.27,784.658 1366.65,784.658C1373.77,784.658 1380.57,782.314 1387.04,777.627C1391.82,774.064 1394.96,769.705 1396.46,764.549C1397.49,761.174 1398.01,754.752 1398.01,745.283L1398.01,737.408Z" style="fill:white;fill-rule:nonzero;"/>
            <path d="M1461.85,766.518L1501.51,760.471C1503.2,768.158 1506.62,773.994 1511.77,777.978C1516.93,781.963 1524.15,783.955 1533.43,783.955C1543.65,783.955 1551.34,782.08 1556.49,778.33C1559.96,775.705 1561.7,772.189 1561.7,767.783C1561.7,764.783 1560.76,762.299 1558.88,760.33C1556.91,758.455 1552.51,756.721 1545.66,755.127C1513.79,748.096 1493.59,741.674 1485.06,735.861C1473.24,727.799 1467.34,716.596 1467.34,702.252C1467.34,689.314 1472.45,678.439 1482.66,669.627C1492.88,660.814 1508.73,656.408 1530.2,656.408C1550.63,656.408 1565.82,659.736 1575.76,666.393C1585.7,673.049 1592.54,682.893 1596.29,695.924L1559.02,702.814C1557.43,697.002 1554.41,692.549 1549.95,689.455C1545.5,686.361 1539.15,684.814 1530.9,684.814C1520.49,684.814 1513.04,686.268 1508.54,689.174C1505.54,691.236 1504.04,693.908 1504.04,697.189C1504.04,700.002 1505.35,702.393 1507.98,704.361C1511.54,706.986 1523.84,710.689 1544.89,715.471C1565.94,720.252 1580.63,726.111 1588.98,733.049C1597.23,740.08 1601.35,749.877 1601.35,762.439C1601.35,776.127 1595.63,787.893 1584.2,797.736C1572.76,807.58 1555.84,812.502 1533.43,812.502C1513.09,812.502 1496.99,808.377 1485.12,800.127C1473.27,791.877 1465.51,780.674 1461.85,766.518Z" style="fill:white;fill-rule:nonzero;"/>
            <path d="M1722.43,761.596L1761.81,768.205C1756.74,782.643 1748.75,793.635 1737.83,801.182C1726.91,808.728 1713.24,812.502 1696.84,812.502C1670.87,812.502 1651.65,804.018 1639.18,787.049C1629.34,773.455 1624.41,756.299 1624.41,735.58C1624.41,710.83 1630.88,691.447 1643.82,677.432C1656.76,663.416 1673.12,656.408 1692.9,656.408C1715.12,656.408 1732.65,663.744 1745.49,678.416C1758.34,693.088 1764.48,715.564 1763.91,745.846L1664.91,745.846C1665.2,757.564 1668.38,766.682 1674.48,773.197C1680.57,779.713 1688.16,782.971 1697.26,782.971C1703.45,782.971 1708.65,781.283 1712.87,777.908C1717.09,774.533 1720.27,769.096 1722.43,761.596ZM1724.68,721.658C1724.4,710.221 1721.45,701.525 1715.82,695.572C1710.2,689.619 1703.35,686.643 1695.29,686.643C1686.66,686.643 1679.54,689.783 1673.91,696.064C1668.29,702.346 1665.52,710.877 1665.62,721.658L1724.68,721.658Z" style="fill:white;fill-rule:nonzero;"/>
            <rect x="1796.12" y="602.971" width="39.516" height="36.563" style="fill:rgb(136,77,255);"/>
            <rect x="1796.12" y="659.783" width="39.516" height="149.344" style="fill:white;"/>
            <path d="M1944.62,659.783L1944.62,691.283L1917.62,691.283L1917.62,751.471C1917.62,763.658 1917.88,770.76 1918.39,772.775C1918.91,774.791 1920.08,776.455 1921.91,777.768C1923.74,779.08 1925.96,779.736 1928.59,779.736C1932.24,779.736 1937.54,778.471 1944.48,775.939L1947.85,806.596C1938.66,810.533 1928.26,812.502 1916.63,812.502C1909.51,812.502 1903.09,811.307 1897.37,808.916C1891.65,806.525 1887.45,803.432 1884.78,799.635C1882.11,795.838 1880.26,790.705 1879.23,784.236C1878.38,779.643 1877.96,770.361 1877.96,756.393L1877.96,691.283L1859.82,691.283L1859.82,659.783L1877.96,659.783L1877.96,630.111L1917.62,607.049L1917.62,659.783L1944.62,659.783Z" style="fill:white;fill-rule:nonzero;"/>
        </g>
    </g>
</svg>
